<?xml version="1.0" encoding="UTF-8" standalone="no"?>
<!-- Created with Inkscape (http://www.inkscape.org/) -->

<svg
   xmlns:dc="http://purl.org/dc/elements/1.1/"
   xmlns:cc="http://creativecommons.org/ns#"
   xmlns:rdf="http://www.w3.org/1999/02/22-rdf-syntax-ns#"
   xmlns:svg="http://www.w3.org/2000/svg"
   xmlns="http://www.w3.org/2000/svg"
   xmlns:sodipodi="http://sodipodi.sourceforge.net/DTD/sodipodi-0.dtd"
   xmlns:inkscape="http://www.inkscape.org/namespaces/inkscape"
   width="210mm"
   height="297mm"
   viewBox="0 0 210 297"
   version="1.1"
   id="svg8"
   inkscape:version="0.92.4 (5da689c313, 2019-01-14)"
   sodipodi:docname="FireCrawler.svg">
  <defs
     id="defs2">
    <inkscape:path-effect
       effect="mirror_symmetry"
       start_point="103.47,45.18"
       end_point="103.47,156.4"
       center_point="103.47,100.79"
       id="path-effect3949"
       is_visible="true"
       mode="free"
       discard_orig_path="false"
       fuse_paths="false"
       oposite_fuse="false" />
    <inkscape:path-effect
       effect="mirror_symmetry"
       start_point="103.41,173.48"
       end_point="102.85,290.5"
       center_point="103.13,231.99"
       id="path-effect3947"
       is_visible="true"
       mode="free"
       discard_orig_path="false"
       fuse_paths="false"
       oposite_fuse="false" />
    <inkscape:path-effect
       effect="spiro"
       id="path-effect3901"
       is_visible="true" />
    <inkscape:path-effect
       effect="spiro"
       id="path-effect3727"
       is_visible="true" />
    <inkscape:path-effect
       effect="spiro"
       id="path-effect3723"
       is_visible="true" />
    <inkscape:path-effect
       effect="spiro"
       id="path-effect3719"
       is_visible="true" />
  </defs>
  <sodipodi:namedview
     id="base"
     pagecolor="#ffffff"
     bordercolor="#666666"
     borderopacity="1.0"
     inkscape:pageopacity="0.0"
     inkscape:pageshadow="2"
     inkscape:zoom="0.49497"
     inkscape:cx="361.72"
     inkscape:cy="624.04"
     inkscape:document-units="mm"
     inkscape:current-layer="layer1"
     showgrid="false"
     inkscape:window-width="1920"
     inkscape:window-height="1017"
     inkscape:window-x="-8"
     inkscape:window-y="-8"
     inkscape:window-maximized="1" />
  <metadata
     id="metadata5">
    <rdf:RDF>
      <cc:Work
         rdf:about="">
        <dc:format>image/svg+xml</dc:format>
        <dc:type
           rdf:resource="http://purl.org/dc/dcmitype/StillImage" />
        <dc:title></dc:title>
      </cc:Work>
    </rdf:RDF>
  </metadata>
  <g
     inkscape:label="Ebene 1"
     inkscape:groupmode="layer"
     id="layer1">
    <path
       style="fill:none;stroke:#000000;stroke-width:0.26458px;stroke-linecap:butt;stroke-linejoin:miter;stroke-opacity:1"
       d="m 118.93,76.902 c 4.97,1.943 9.23,5.654 11.84,10.313 2.6,4.658 3.54,10.23 2.59,15.485 -1.13,6.26 -5.03,11.89 -10.38,15.34 -5.34,3.45 -19.22,3.82 -19.84,3.66 m 22.21,-77.272 c 4.84,2.705 8.24,7.849 8.82,13.364 0.47,4.491 -0.88,9.15 -3.7,12.681 -2.82,3.531 -7.06,5.893 -11.54,6.429 m 6.42,-32.474 c 7.07,3.226 13.47,7.893 18.71,13.632 7.32,8.016 12.3,18.13 14.22,28.812 1.91,10.683 3.81,28.788 1.73,39.438 -3.79,19.34 -13.42,28.97 -26.49,29.33 H 103.07 M 88.01,76.902 c -4.97,1.943 -9.23,5.654 -11.84,10.313 -2.6,4.658 -3.54,10.23 -2.59,15.485 1.13,6.26 5.03,11.89 10.38,15.34 5.34,3.45 19.22,3.82 19.84,3.66 M 81.59,44.428 c -4.84,2.705 -8.24,7.849 -8.82,13.364 -0.47,4.491 0.88,9.15 3.7,12.681 2.82,3.531 7.06,5.893 11.54,6.429 M 81.59,44.428 c -7.07,3.226 -13.47,7.893 -18.71,13.632 -7.32,8.016 -12.3,18.13 -14.22,28.812 -1.91,10.683 -3.81,28.788 -1.73,39.438 3.79,19.34 13.42,28.97 26.49,29.33 h 30.45"
       id="path3725"
       inkscape:connector-curvature="0"
       sodipodi:nodetypes="ccccccccccccscc"
       inkscape:path-effect="#path-effect3949"
       inkscape:original-d="m 118.93,76.902 c 4.97,1.943 9.23,5.654 11.84,10.313 2.6,4.658 3.54,10.23 2.59,15.485 -1.13,6.26 -5.03,11.89 -10.38,15.34 -5.34,3.45 -19.22,3.82 -19.84,3.66 m 22.21,-77.272 c 4.84,2.705 8.24,7.849 8.82,13.364 0.47,4.491 -0.88,9.15 -3.7,12.681 -2.82,3.531 -7.06,5.893 -11.54,6.429 m 6.42,-32.474 c 7.07,3.226 13.47,7.893 18.71,13.632 7.32,8.016 12.3,18.13 14.22,28.812 1.91,10.683 3.81,28.788 1.73,39.438 -3.79,19.34 -13.42,28.97 -26.49,29.33 h -30.45" />
    <path
       style="fill:none;stroke:#000000;stroke-width:0.26458px;stroke-linecap:butt;stroke-linejoin:miter;stroke-opacity:1"
       d="m 102.84,173.52 30.99,-0.51 c 7.55,0.27 14.87,4.34 19.07,10.62 2.99,4.46 4.4,9.82 4.95,15.16 0.55,5.34 0.29,10.73 0.2,16.1 -0.2,11.65 0.42,23.29 0.91,34.93 0.23,5.54 0.44,11.12 -0.35,16.61 -0.79,5.49 -2.63,10.94 -6.1,15.27 -2.47,3.08 -5.73,5.52 -9.38,7.03 -3.64,1.51 -7.68,2.08 -11.6,1.64 h -29.02 m 1.47,-116.84 -30.984,-0.81 c -7.551,0.2 -14.906,4.2 -19.171,10.44 -3.032,4.43 -4.496,9.77 -5.098,15.11 -0.601,5.34 -0.39,10.73 -0.351,16.1 0.09,11.64 -0.643,23.28 -1.244,34.91 -0.286,5.54 -0.542,11.12 0.194,16.62 0.735,5.5 2.524,10.96 5.95,15.33 2.44,3.1 5.674,5.57 9.308,7.12 3.634,1.54 7.661,2.15 11.589,1.75 l 29.017,0.27"
       id="path3899"
       inkscape:connector-curvature="0"
       inkscape:path-effect="#path-effect3901;#path-effect3947"
       inkscape:original-d="m 102.84,173.52 c 10.78,0.8 18.71,0.86 30.99,-0.51 10.95,0.71 11.48,6.31 19.07,10.62 7.59,4.31 5.51,22.16 5.15,31.26 0,8.9 0.91,19.88 0.91,34.93 0,9 -4.15,22.45 -6.45,31.88 -3,11.53 -16.65,3.13 -20.98,8.67 -6.69,-4.47 -25.45,-0.42 -29.02,0"
       sodipodi:nodetypes="cczcsccc" />
  </g>
</svg>
